<?xml version="1.0" encoding="UTF-8"?>
<svg id="Layer_2" data-name="Layer 2" xmlns="http://www.w3.org/2000/svg" viewBox="0 0 121.66 53.78">
  <g id="Layer_1-2" data-name="Layer 1">
    <path d="m40.86,53.78c-.74-.67-1.47-1.34-2.22-2-2.57-2.23-4.62-4.89-6.33-7.8-1.08-1.84-2.01-3.79-2.78-5.78-.53-1.35-.56-2.88-1.01-4.26-1.23-3.73-.6-7.55-.54-11.32.03-1.57.74-3.12,1.17-4.68.25-.89.49-1.79.86-2.63.82-1.83,1.65-3.66,2.6-5.42,1.91-3.56,4.82-6.28,7.84-8.87.65-.56,1.67-.97,2.52-.99,4.61-.1,9.23-.05,13.84-.05.32,0,.65,0,1.08,0,.03.54.07.98.07,1.42,0,17.04,0,34.08,0,51.12,0,.41-.07.82-.11,1.23h-16.97Zm2.08-30.56c-1.49-1.47-2.82-2.86-4.24-4.16-1.29-1.18-2.51-1.31-3.92-.16-1.09.89-1.24,2.03-.37,3.43.23.37.57.68.88,1.01,1.1,1.18,2.22,2.33,3.3,3.53.13.14.12.61-.01.75-1.04,1.05-2.17,2.02-3.17,3.1-.81.87-1.8,1.77-1.55,3.12.23,1.23,1.08,2.09,2.28,2.44,1.07.31,1.88-.43,2.6-1.06,1.21-1.08,2.37-2.23,3.48-3.42.68-.73,1.08-.52,1.69.09,1.36,1.38,2.75,2.75,4.25,3.96,1.07.86,2.22.58,3.11-.44.92-1.05,1.09-2.37.25-3.31-1.49-1.66-3.07-3.24-4.64-4.88.78-.84,1.54-1.66,2.3-2.49.82-.88,1.75-1.69,2.42-2.68.81-1.2.72-2.04-1.03-3.57-.61-.53-2.25-.42-2.91.21-1.57,1.49-3.12,3-4.71,4.53Z"/>
    <path d="m16.14,53.78c-.77-1.53-1.57-3.04-2.29-4.59-.91-1.98-1.8-3.97-2.61-5.99-.39-.97-.67-2-.88-3.03-.2-.95-.69-1.39-1.64-1.63-.98-.25-1.89-.78-2.84-1.15-.92-.36-1.87-.67-2.8-.99-.84-.29-1.71-.51-2.52-.87-.26-.12-.53-.57-.53-.87C0,29.47,0,24.3,0,19.24c1.92-.85,3.7-1.68,5.5-2.43,1.36-.57,2.77-1.03,4.15-1.56.23-.09.52-.27.59-.48.77-2.39,1.45-4.81,2.27-7.18.4-1.15,1.01-2.23,1.57-3.32.72-1.41,1.48-2.8,2.2-4.17h16.85c-1.2,1.53-2.38,2.86-3.35,4.32-1.25,1.89-2.45,3.84-3.47,5.87-1.04,2.05-1.89,4.2-2.72,6.34-.38.98-.64,2.04-.74,3.08-.31,3.12-.77,6.25-.67,9.36.09,2.76.69,5.54,1.34,8.25.51,2.11,1.26,4.21,2.23,6.15,1.08,2.15,2.49,4.15,3.86,6.14,1,1.45,2.17,2.78,3.26,4.16h-16.72Z"/>
    <path d="m63.82,53.78c-.04-.41-.11-.82-.11-1.23,0-17.04,0-34.08,0-51.12,0-.44.04-.88.07-1.42.43,0,.75,0,1.08,0,4.62,0,9.23-.05,13.84.05.86.02,1.87.43,2.52.99,3.02,2.59,5.93,5.31,7.84,8.87.95,1.76,1.78,3.59,2.6,5.42.37.84.62,1.74.86,2.63.43,1.55,1.15,3.11,1.17,4.68.06,3.77.69,7.58-.54,11.32-.46,1.38-.49,2.92-1.01,4.26-.78,1.99-1.7,3.94-2.78,5.78-1.71,2.9-3.76,5.57-6.33,7.8-.75.65-1.48,1.33-2.22,2-5.66,0-11.32,0-16.97,0Zm10.18-35.09c-.66-.63-2.3-.74-2.91-.21-1.75,1.53-1.84,2.38-1.03,3.57.67.99,1.6,1.79,2.42,2.68.76.83,1.53,1.65,2.3,2.49-1.57,1.64-3.15,3.22-4.64,4.88-.84.93-.67,2.25.25,3.31.89,1.02,2.04,1.3,3.11.44,1.51-1.21,2.89-2.58,4.25-3.96.61-.62,1.01-.83,1.69-.09,1.11,1.19,2.27,2.34,3.48,3.42.71.64,1.52,1.37,2.6,1.06,1.2-.34,2.05-1.21,2.28-2.44.25-1.35-.74-2.25-1.55-3.12-1-1.08-2.13-2.05-3.17-3.1-.13-.14-.14-.61-.01-.75,1.07-1.2,2.19-2.36,3.3-3.53.31-.33.65-.64.88-1.01.87-1.41.73-2.54-.37-3.43-1.41-1.15-2.64-1.02-3.92.16-1.42,1.3-2.75,2.69-4.24,4.16-1.59-1.53-3.15-3.03-4.71-4.53Z"/>
    <path d="m105.51,53.78c.77-1.53,1.57-3.04,2.29-4.59.91-1.98,1.8-3.97,2.61-5.99.39-.97.67-2,.88-3.03.2-.95.69-1.39,1.64-1.63.98-.25,1.89-.78,2.84-1.15.92-.36,1.87-.67,2.8-.99.84-.29,1.71-.51,2.52-.87.26-.12.53-.57.53-.87.03-5.18.02-10.35.02-15.41-1.92-.85-3.7-1.68-5.5-2.43-1.36-.57-2.77-1.03-4.15-1.56-.23-.09-.52-.27-.59-.48-.77-2.39-1.45-4.81-2.27-7.18-.4-1.15-1.01-2.23-1.57-3.32-.72-1.41-1.48-2.8-2.2-4.17-5.58,0-11.12,0-16.85,0,1.2,1.53,2.38,2.86,3.35,4.32,1.25,1.89,2.45,3.84,3.47,5.87,1.04,2.05,1.89,4.2,2.72,6.34.38.98.64,2.04.74,3.08.31,3.12.77,6.25.67,9.36-.09,2.76-.69,5.54-1.34,8.25-.51,2.11-1.26,4.21-2.23,6.15-1.08,2.15-2.49,4.15-3.86,6.14-1,1.45-2.17,2.78-3.26,4.16,5.57,0,11.15,0,16.72,0Z"/>
  </g>
</svg>